# xmcd
#
# Track frame offsets: 
#        150
#        27669
#        47430
#        67200
#        94527
#        123312
#        145657
#        168981
#        196301
#        216967
#        250093
#        278786
#        302343
#
# Disc length: 4303 seconds
#
# Revision: 0
# Processed by: cddbd v1.5.2PL0 Copyright (c) Steve Scherf et al.
# Submitted via: ExactAudioCopy v1.0b3
#
DISCID=b510cd0d
DTITLE=ReinXeed - Majestic
DYEAR=2010
DGENRE=Metal
TTITLE0=Deep Under Sea
TTITLE1=Invincible
TTITLE2=Never Lie
TTITLE3=Once Upon A Time
TTITLE4=Melody Of Life
TTITLE5=Atlantis
TTITLE6=Second Chance
TTITLE7=My Paradise
TTITLE8=Neverland
TTITLE9=Majestic
TTITLE10=Lightning Strikes Again
TTITLE11=Sword In Stone
TTITLE12=Forever Carry On
EXTD=
EXTT0=
EXTT1=
EXTT2=
EXTT3=
EXTT4=
EXTT5=
EXTT6=
EXTT7=
EXTT8=
EXTT9=
EXTT10=
EXTT11=
EXTT12=
PLAYORDER=
